<?xml version="1.0" encoding="UTF-8"?>
<svg width="240px" height="270px" viewBox="0 0 240 270" version="1.1" xmlns="http://www.w3.org/2000/svg" xmlns:xlink="http://www.w3.org/1999/xlink">
    <!-- Generator: Sketch 64 (93537) - https://sketch.com -->
    <title>Default</title>
    <desc>Created with Sketch.</desc>
    <defs>
        <circle id="path-1" cx="120" cy="120" r="120"></circle>
        <path d="M-3.19744231e-14,160 L-3.19744231e-14,-1.42108547e-14 L264,-1.42108547e-14 L264,160 L252,160 C252,226.27417 198.27417,280 132,280 C65.72583,280 12,226.27417 12,160 L12,160 L-3.19744231e-14,160 Z" id="path-3"></path>
        <path d="M100,0 C130.927946,0 156,25.072054 156,56 L156.000809,62.1660527 C161.675838,63.1185422 166,68.05429 166,74 L166,88 C166,94.0524166 161.519235,99.0582945 155.693975,99.8813638 C153.627928,119.686472 141.237929,136.421678 124.001014,144.610469 L124,163 L128,163 C167.764502,163 200,195.235498 200,235 L200,244 L0,244 L0,235 C0,195.235498 32.235498,163 72,163 L76,163 L75.9999836,144.610943 C58.7625487,136.422324 46.3721119,119.686854 44.3051107,99.8809698 C38.480765,99.0582945 34,94.0524166 34,88 L34,74 C34,68.053942 38.3246685,63.1179645 44.0001873,62.1658855 L44,56 C44,25.072054 69.072054,0 100,0 Z" id="path-5"></path>
        <path d="M100,0 C130.927946,0 156,25.072054 156,56 L156.000809,62.1660527 C161.675838,63.1185422 166,68.05429 166,74 L166,88 C166,94.0524166 161.519235,99.0582945 155.693975,99.8813638 C153.627928,119.686472 141.237929,136.421678 124.001014,144.610469 L124,163 L128,163 C167.764502,163 200,195.235498 200,235 L200,244 L0,244 L0,235 C0,195.235498 32.235498,163 72,163 L76,163 L75.9999836,144.610943 C58.7625487,136.422324 46.3721119,119.686854 44.3051107,99.8809698 C38.480765,99.0582945 34,94.0524166 34,88 L34,74 C34,68.053942 38.3246685,63.1179645 44.0001873,62.1658855 L44,56 C44,25.072054 69.072054,0 100,0 Z" id="path-7"></path>
        <path d="M128,0.0517235 C167.764502,0.0517235 200,32.2872215 200,72.0517235 L200,81 L0,81 L0,72.0517235 C0,32.2872215 32.235498,0.0517235 72,0.0517235 L73.192363,0.0517235 C73.065349,1.0355191 73,2.0365551 73,3.0517235 C73,16.8588423 85.088312,28.0517235 100,28.0517235 C114.911688,28.0517235 127,16.8588423 127,3.0517235 C127,2.0365551 126.934651,1.0355191 126.807637,0.0517235 L128,0.0517235 Z" id="path-9"></path>
        <rect id="path-11" x="0" y="0" width="264" height="280"></rect>
        <path d="M112.679824,28.9488198 C118.086072,23.9985622 119.387393,13.9615454 116.317704,7.4493246 C112.549263,-0.54614688 104.901319,-1.54782263 97.572342,1.9686703 C90.664469,5.2835661 84.515175,6.3878671 76.950196,4.7817319 C69.691624,3.2406923 62.805566,0.5226172 55.303388,0.0762471 C42.978028,-0.65707517 31.003367,3.914565 22.6031232,13.1292512 C21.0003538,14.8871655 19.7089493,16.8971594 18.4882796,18.9343872 C17.5115454,20.5644351 16.4105298,22.3133822 15.9950459,24.1921885 C15.7973853,25.0855929 16.165272,27.2898774 15.7203704,28.0218712 C15.2391099,28.8123183 13.4244668,29.5373375 12.6510124,30.1238625 C11.0842713,31.3125222 9.7267597,32.6539573 8.4713836,34.1710842 C5.8052796,37.3926541 4.3376994,40.7577001 3.1034777,44.7428152 C-0.9994667,57.9877849 -1.3471906,73.7412616 3.9569218,86.7467724 C4.6639385,88.4811062 6.8550622,92.098564 8.1431613,88.3847912 C8.3976741,87.6508047 7.8086588,85.1907873 7.8099809,84.4501584 C7.8146084,81.7300906 9.3160587,63.7213568 15.857084,53.6330196 C17.9862338,50.3491948 27.8298903,38.0522456 29.840541,37.9536058 C30.9058,39.6464245 41.720532,50.4624529 69.783385,49.1948919 C82.445253,48.6229725 92.18265,42.9341181 94.520833,40.4680909 C95.549375,46.0008881 107.51323,54.2839965 109.33625,57.6921976 C114.602529,67.5376948 115.770677,87.9957204 117.780988,87.9573368 C119.791299,87.9189532 121.234429,82.7197798 121.647929,81.7270713 C124.719601,74.351669 125.242509,65.0948338 124.914948,57.1684434 C124.487565,46.9663626 120.276535,35.9419513 112.679824,28.9488198 Z" id="path-13"></path>
        <path d="M115.679824,28.9488198 C121.086072,23.9985622 122.387393,13.9615454 119.317704,7.4493246 C115.549263,-0.54614688 107.901319,-1.54782263 100.572342,1.9686703 C93.664469,5.2835661 87.515175,6.3878671 79.950196,4.7817319 C72.691624,3.2406923 65.805566,0.5226172 58.303388,0.0762471 C45.978028,-0.65707517 34.003367,3.914565 25.6031232,13.1292512 C24.0003538,14.8871655 22.7089493,16.8971594 21.4882796,18.9343872 C20.5115454,20.5644351 19.4105298,22.3133822 18.9950459,24.1921885 C18.7973853,25.0855929 19.165272,27.2898774 18.7203704,28.0218712 C18.2391099,28.8123183 16.4244668,29.5373375 15.6510124,30.1238625 C14.0842713,31.3125222 12.7267597,32.6539573 11.4713836,34.1710842 C8.8052796,37.3926541 7.3376994,40.7577001 6.1034777,44.7428152 C2.0005333,57.9877849 1.6528094,73.7412616 6.9569218,86.7467724 C7.6639385,88.4811062 9.8550622,92.098564 11.1431613,88.3847912 C11.3976741,87.6508047 10.8086588,85.1907873 10.8099809,84.4501584 C10.8146084,81.7300906 12.3160587,63.7213568 18.857084,53.6330196 C20.9862338,50.3491948 30.8298903,38.0522456 32.840541,37.9536058 C33.9058,39.6464245 44.720532,50.4624529 72.783385,49.1948919 C85.445253,48.6229725 95.18265,42.9341181 97.520833,40.4680909 C98.549375,46.0008881 110.51323,54.2839965 112.33625,57.6921976 C117.602529,67.5376948 118.770677,87.9957204 120.780988,87.9573368 C122.791299,87.9189532 124.234429,82.7197798 124.647929,81.7270713 C127.719601,74.351669 128.242509,65.0948338 127.914948,57.1684434 C127.487565,46.9663626 123.276535,35.9419513 115.679824,28.9488198 Z" id="path-15"></path>
    </defs>
    <g id="Page-1" stroke="none" stroke-width="1" fill="none" fill-rule="evenodd">
        <g id="Default" transform="translate(-12.000000, -10.000000)">
            <g id="Circle" transform="translate(12.000000, 40.000000)">
                <g id="Circle-Background" fill="#E6E6E6" fill-rule="nonzero">
                    <circle id="path-1" cx="120" cy="120" r="120"></circle>
                </g>
                <g id="Color/Palette/Blue-01-Clipped">
                    <mask id="mask-2" fill="white">
                        <use xlink:href="#path-1"></use>
                    </mask>
                    <g id="path-1"></g>
                    <g id="Color/Palette/Blue-01" mask="url(#mask-2)" fill="#65C9FF" fill-rule="nonzero">
                        <rect id="ðŸ–Color" x="0" y="0" width="240" height="240"></rect>
                    </g>
                </g>
            </g>
            <g id="Avataaar-Clipped">
                <mask id="mask-4" fill="white">
                    <use xlink:href="#path-3"></use>
                </mask>
                <g id="path-3"></g>
                <g id="Avataaar" mask="url(#mask-4)">
                    <g id="Body" transform="translate(32.000000, 36.000000)">
                        <g id="path-5-link" fill="#D0C6AC" fill-rule="nonzero">
                            <path d="M100,0 C130.927946,0 156,25.072054 156,56 L156.000809,62.1660527 C161.675838,63.1185422 166,68.05429 166,74 L166,88 C166,94.0524166 161.519235,99.0582945 155.693975,99.8813638 C153.627928,119.686472 141.237929,136.421678 124.001014,144.610469 L124,163 L128,163 C167.764502,163 200,195.235498 200,235 L200,244 L0,244 L0,235 C0,195.235498 32.235498,163 72,163 L76,163 L75.9999836,144.610943 C58.7625487,136.422324 46.3721119,119.686854 44.3051107,99.8809698 C38.480765,99.0582945 34,94.0524166 34,88 L34,74 C34,68.053942 38.3246685,63.1179645 44.0001873,62.1658855 L44,56 C44,25.072054 69.072054,0 100,0 Z" id="path-5"></path>
                        </g>
                        <g id="Skin/ðŸ‘¶ðŸ¼-04-Light-Clipped">
                            <mask id="mask-6" fill="white">
                                <use xlink:href="#path-5"></use>
                            </mask>
                            <g id="path-5"></g>
                            <g id="Skin/ðŸ‘¶ðŸ¼-04-Light" mask="url(#mask-6)">
                                <g transform="translate(-32.000000, 0.000000)" id="Color">
                                    <g>
                                        <rect id="Rectangle" fill="#EDB98A" fill-rule="nonzero" x="0" y="0" width="264" height="244"></rect>
                                    </g>
                                </g>
                            </g>
                        </g>
                        <g id="Neck-Shadow-Clipped">
                            <mask id="mask-8" fill="white">
                                <use xlink:href="#path-7"></use>
                            </mask>
                            <g id="path-5"></g>
                            <path d="M44,94 C44,124.927946 69.072054,150 100,150 C130.927946,150 156,124.927946 156,94 L156,94 L156,102 C156,132.927946 130.927946,158 100,158 C69.072054,158 44,132.927946 44,102 L44,94 Z" id="Neck-Shadow" fill-opacity="0.100000001" fill="#000000" fill-rule="nonzero" mask="url(#mask-8)"></path>
                        </g>
                    </g>
                    <g id="Clothing/Blazer-+-Sweater" transform="translate(32.000000, 191.000000)">
                        <g id="Clothes" transform="translate(0.000000, 8.000000)" fill="#E6E6E6">
                            <path d="M128,0.0517235 C167.764502,0.0517235 200,32.2872215 200,72.0517235 L200,81 L0,81 L0,72.0517235 C0,32.2872215 32.235498,0.0517235 72,0.0517235 L73.192363,0.0517235 C73.065349,1.0355191 73,2.0365551 73,3.0517235 C73,16.8588423 85.088312,28.0517235 100,28.0517235 C114.911688,28.0517235 127,16.8588423 127,3.0517235 C127,2.0365551 126.934651,1.0355191 126.807637,0.0517235 L128,0.0517235 Z" id="path-7"></path>
                        </g>
                        <g id="Color/Palette/Tech-Gold-Clipped" transform="translate(0.000000, 8.000000)">
                            <mask id="mask-10" fill="white">
                                <use xlink:href="#path-9"></use>
                            </mask>
                            <g id="path-7"></g>
                            <g id="Color/Palette/Tech-Gold" mask="url(#mask-10)" fill="#B3A369">
                                <g transform="translate(-32.000000, -29.000000)" id="ðŸ–Color">
                                    <rect x="0" y="0" width="264" height="110"></rect>
                                </g>
                            </g>
                        </g>
                        <g id="Blazer" transform="translate(0.000000, 7.000000)" fill-rule="nonzero">
                            <path d="M64,40.5 C64,55.7092257 65.9608691,69.9209213 69.3620096,82.0011822 L0,82 L0,73.0517235 C0,34.3646678 30.512279,2.80413671 68.7847355,1.12223161 C65.7400343,12.7307619 64,26.1727873 64,40.5 Z M200,73.0517235 L200,82 L131.63799,82.0011822 C135.039131,69.9209213 137,55.7092257 137,40.5 C137,26.194165 135.265154,12.7708778 132.228695,1.1737534 C170.025091,3.36299447 200,34.7068514 200,73.0517235 Z" id="Saco" fill="#3A4C5A"></path>
                            <path d="M149,58 L158.555853,50.83311 C159.998897,49.7508275 161.987779,49.7682725 163.411616,50.8757011 L170,56 L170,56 L149,58 Z" id="Pocket-hanky" fill="#B3A369"></path>
                            <path d="M69,0 C65,19.3333333 66.6666667,46.6666667 74,82 L58,82 L44,46 L50,37 L44,31 L63,1 C65.027659,0.369238637 67.027659,0.0359053037 69,0 Z" id="Wing" fill="#2F4351"></path>
                            <path d="M151,0 C147,19.3333333 148.666667,46.6666667 156,82 L140,82 L126,46 L132,37 L126,31 L145,1 C147.027659,0.369238637 149.027659,0.0359053037 151,0 Z" id="Wing" fill="#2F4351" transform="translate(141.000000, 41.000000) scale(-1, 1) translate(-141.000000, -41.000000) "></path>
                        </g>
                        <path d="M124.000381,0.539265 C130.772478,5.1362012 135,11.6564553 135,18.8878801 C135,26.2887654 130.572022,32.9447584 123.520121,37.5564834 L117.579,32.8760062 L113,33.207887 L114,30.0567821 L113.92205,29.9956082 C120.022413,26.8531513 124,21.7004148 124,15.8768102 L124.000381,0.539265 Z M86.07795,29.9956082 L86,30.0567821 L87,33.207887 L82.42,32.8760062 L76.479879,37.5564834 C69.560638,33.0315136 65.1675258,26.5384654 65.004689,19.3047544 L65,18.8878801 C65,11.6560965 69.227942,5.1355541 76.000627,0.5385807 L76,15.8768102 C76,21.7004148 79.977587,26.8531513 86.07795,29.9956082 Z" id="Collar" fill="#F2F2F2"></path>
                    </g>
                    <g id="Face" transform="translate(88.000000, 88.000000)" fill="#000000" fill-rule="nonzero">
                        <g id="Mouth/Default" transform="translate(30.000000, 61.000000)" fill-opacity="0.699999988">
                            <path d="M0,0 C0,7.7319865 6.2680135,14 14,14 L14,14 C21.7319865,14 28,7.7319865 28,0" id="Mouth"></path>
                        </g>
                        <g id="Nose/Default" transform="translate(32.000000, 42.000000)" fill-opacity="0.16">
                            <path d="M0,0 C0,4.418278 5.372583,8 12,8 L12,8 C18.627417,8 24,4.418278 24,0" id="Nose"></path>
                        </g>
                        <g id="Eyes/Default-ðŸ˜€" transform="translate(12.000000, 18.000000)" fill-opacity="0.599999964">
                            <circle id="Eye" cx="6" cy="6" r="6"></circle>
                            <circle id="Eye" cx="58" cy="6" r="6"></circle>
                        </g>
                        <g id="Eyebrow/Outline/Default" fill-opacity="0.599999964">
                            <g id="I-Browse">
                                <path d="M3.63024536,11.1585767 C7.54515501,5.64986673 18.2779197,2.56083721 27.5230268,4.83118046 C28.5957248,5.0946055 29.6788665,4.43856013 29.9422916,3.36586212 C30.2057166,2.2931641 29.5496712,1.21002236 28.4769732,0.94659732 C17.7403633,-1.69001789 5.31209962,1.88699832 0.369754639,8.84142326 C-0.270109626,9.74178291 -0.0589363917,10.9903811 0.84142326,11.6302454 C1.74178291,12.2701096 2.9903811,12.0589364 3.63024536,11.1585767 Z" id="Eyebrow"></path>
                                <path d="M61.6302461,11.1585767 C65.5451557,5.64986673 76.2779204,2.56083721 85.5230275,4.83118046 C86.5957255,5.0946055 87.6788672,4.43856013 87.9422923,3.36586212 C88.2057173,2.2931641 87.5496719,1.21002236 86.4769739,0.94659732 C75.740364,-1.69001789 63.3121003,1.88699832 58.3697553,8.84142326 C57.7298911,9.74178291 57.9410643,10.9903811 58.841424,11.6302454 C59.7417836,12.2701096 60.9903818,12.0589364 61.6302461,11.1585767 Z" id="Eyebrow" transform="translate(73.000154, 6.039198) scale(-1, 1) translate(-73.000154, -6.039198) "></path>
                            </g>
                        </g>
                    </g>
                    <g id="Top">
                        <g id="Top/Short-Hair/Short-Waved-Clipped">
                            <mask id="mask-12" fill="white">
                                <use xlink:href="#path-11"></use>
                            </mask>
                            <g id="path-9"></g>
                            <g id="Top/Short-Hair/Short-Waved" mask="url(#mask-12)">
                                <g transform="translate(67.000000, 10.000000)" id="Group">
                                    <g>
                                        <g id="Short-Hair" transform="translate(3.000000, 0.000000)" fill="#28354B">
                                            <path d="M112.679824,28.9488198 C118.086072,23.9985622 119.387393,13.9615454 116.317704,7.4493246 C112.549263,-0.54614688 104.901319,-1.54782263 97.572342,1.9686703 C90.664469,5.2835661 84.515175,6.3878671 76.950196,4.7817319 C69.691624,3.2406923 62.805566,0.5226172 55.303388,0.0762471 C42.978028,-0.65707517 31.003367,3.914565 22.6031232,13.1292512 C21.0003538,14.8871655 19.7089493,16.8971594 18.4882796,18.9343872 C17.5115454,20.5644351 16.4105298,22.3133822 15.9950459,24.1921885 C15.7973853,25.0855929 16.165272,27.2898774 15.7203704,28.0218712 C15.2391099,28.8123183 13.4244668,29.5373375 12.6510124,30.1238625 C11.0842713,31.3125222 9.7267597,32.6539573 8.4713836,34.1710842 C5.8052796,37.3926541 4.3376994,40.7577001 3.1034777,44.7428152 C-0.9994667,57.9877849 -1.3471906,73.7412616 3.9569218,86.7467724 C4.6639385,88.4811062 6.8550622,92.098564 8.1431613,88.3847912 C8.3976741,87.6508047 7.8086588,85.1907873 7.8099809,84.4501584 C7.8146084,81.7300906 9.3160587,63.7213568 15.857084,53.6330196 C17.9862338,50.3491948 27.8298903,38.0522456 29.840541,37.9536058 C30.9058,39.6464245 41.720532,50.4624529 69.783385,49.1948919 C82.445253,48.6229725 92.18265,42.9341181 94.520833,40.4680909 C95.549375,46.0008881 107.51323,54.2839965 109.33625,57.6921976 C114.602529,67.5376948 115.770677,87.9957204 117.780988,87.9573368 C119.791299,87.9189532 121.234429,82.7197798 121.647929,81.7270713 C124.719601,74.351669 125.242509,65.0948338 124.914948,57.1684434 C124.487565,46.9663626 120.276535,35.9419513 112.679824,28.9488198 Z" id="path-11"></path>
                                        </g>
                                        <g id="Color/Hair/Brown-Dark-Clipped" transform="translate(3.000000, 0.000000)">
                                            <mask id="mask-14" fill="white">
                                                <use xlink:href="#path-13"></use>
                                            </mask>
                                            <g id="path-11"></g>
                                            <g id="Color/Hair/Brown-Dark" mask="url(#mask-14)">
                                                <g transform="translate(-70.000000, -10.000000)" id="Color">
                                                    <g>
                                                        <rect id="Rectangle" fill="#4A312C" fill-rule="nonzero" x="0" y="0" width="264" height="280"></rect>
                                                    </g>
                                                </g>
                                            </g>
                                        </g>
                                        <g id="Top/_Resources/Prescription-02-Clipped">
                                            <mask id="mask-16" fill="white">
                                                <use xlink:href="#path-15"></use>
                                            </mask>
                                            <g id="path-11"></g>
                                            <g id="Top/_Resources/Prescription-02" transform="translate(0.000000, 82.000000)" fill="#252C2F" fill-rule="nonzero">
                                                <g id="Wayfarers">
                                                    <g id="Group">
                                                        <path d="M35.4700694,0 C57.1829942,0 59,10.127 59,20.5 C59,32.5686429 48.7212748,41 34,41 L31.2421498,41 C17.3147125,41 9,33.3359286 9,20.5 C9,10.127 10.8170058,0 32.5299306,0 L35.4700694,0 Z M35.6146394,6 L32.3853606,6 C13,6 13,12.8410159 13,21.5015498 C13,28.5719428 16.116254,37 30.9709365,37 L34,37 C46.3649085,37 55,30.6270373 55,21.5015498 L54.9994766,20.7271501 C54.9825532,12.4367119 54.4184392,6 35.6146394,6 Z" id="Left"></path>
                                                        <path d="M97.4700694,0 C119.182994,0 121,10.127 121,20.5 C121,32.5686429 110.721275,41 96,41 L93.2421498,41 C79.3147125,41 71,33.3359286 71,20.5 C71,10.127 72.8170058,0 94.5299306,0 L97.4700694,0 Z M97.6146394,6 L94.3853606,6 C75.5815608,6 75.0174468,12.4367119 75.0005234,20.7271501 L75,21.5015498 C75,28.5719428 78.1194833,37 92.9709365,37 L96,37 C108.364909,37 117,30.6270373 117,21.5015498 C117,12.8410159 117,6 97.6146394,6 Z" id="Right"></path>
                                                        <path d="M2.95454545,5.77156439 C3.64590909,5.09629136 11.2095455,0 32.5,0 C50.3513636,0 54.1302273,1.85267217 59.8502273,4.6518809 L60.2689233,4.85850899 C60.6666014,4.99901896 62.7002447,5.68982981 65.0790606,5.76579519 C67.2462948,5.67278567 69.1000195,5.08540191 69.641698,4.89719767 C76.1703915,1.7220864 82.5610971,0 97.5,0 C118.790455,0 126.354091,5.09629136 127.045455,5.77156439 C128.679318,5.77156439 130,7.06150904 130,8.65734659 L130,11.5431288 C130,13.1389663 128.679318,14.428911 127.045455,14.428911 C127.045455,14.428911 120.143997,14.428911 120.143997,17.3146932 C120.143997,20.2004754 118.181818,13.1389663 118.181818,11.5431288 L118.181818,8.73240251 C114.578575,7.35340151 108.128411,4.78617535 97.5,4.78617535 C85.6584651,4.78617535 79.7610984,6.88602813 74.7022935,8.97112368 L74.7588636,9.10752861 L74.7563667,11.0937608 L72.5391666,16.4436339 L69.8004908,15.3608351 C69.5558969,15.2641292 69.0281396,15.090392 68.2963505,14.9099044 C66.256272,14.4067419 64.1589087,14.253569 62.3040836,14.6343084 C61.6235903,14.7739931 60.9922286,14.9836085 60.4128127,15.266732 L57.7704824,16.5578701 L55.1266751,11.3962031 L55.2440909,9.10175705 L55.3248203,8.90683855 C50.9620526,6.87386374 46.9392639,4.78617535 32.5,4.78617535 C21.8721459,4.78617535 15.422131,7.3524397 11.8181818,8.7314671 L11.8181818,11.5431288 C11.8181818,13.1389663 8.86363636,20.2004754 8.86363636,17.3146932 C8.86363636,14.428911 2.95454545,14.428911 2.95454545,14.428911 C1.32363636,14.428911 0,13.1389663 0,11.5431288 L0,8.65734659 C0,7.06150904 1.32363636,5.77156439 2.95454545,5.77156439 Z" id="Stuff"></path>
                                                    </g>
                                                </g>
                                            </g>
                                        </g>
                                    </g>
                                </g>
                            </g>
                        </g>
                    </g>
                </g>
            </g>
        </g>
    </g>
</svg>